<svg xmlns="http://www.w3.org/2000/svg" width="48" height="48" viewBox="0 0 48 48">
    <path fill="rgb(240, 173, 78)" d="M17 0c-9.389 0-17 7.611-17 17s7.611 17 17 17 17-7.611 17-17-7.611-17-17-17zM23.375 8.5c1.174 0 2.125 1.427 2.125 3.188s-0.951 3.188-2.125 3.188-2.125-1.427-2.125-3.188 0.951-3.188 2.125-3.188zM10.625 8.5c1.174 0 2.125 1.427 2.125 3.188s-0.951 3.188-2.125 3.188-2.125-1.427-2.125-3.188 0.951-3.188 2.125-3.188zM17 29.75c-5.541 0-10.141-4.644-10.625-10.569 3.113 1.797 6.775 2.824 10.625 2.824s7.512-1.023 10.625-2.82c-0.484 5.925-5.084 10.564-10.625 10.564z"/>
</svg>
