

<svg xmlns="http://www.w3.org/2000/svg" width="48" height="48" viewBox="0 0 48 48">
    <path fill="rgb(77, 166, 255)" d="M34 7.517c-1.248 0.558-2.596 0.93-4.004 1.096 1.441-0.863 2.543-2.231 3.068-3.858-1.348 0.797-2.842 1.381-4.429 1.693-1.275-1.355-3.088-2.198-5.093-2.198-3.852 0-6.973 3.121-6.973 6.973 0 0.545 0.060 1.076 0.179 1.587-5.797-0.292-10.937-3.068-14.377-7.291-0.598 1.029-0.943 2.231-0.943 3.506 0 2.417 1.229 4.555 3.101 5.804-1.142-0.033-2.218-0.352-3.161-0.87 0 0.027 0 0.060 0 0.086 0 3.38 2.404 6.202 5.598 6.84-0.584 0.159-1.202 0.246-1.839 0.246-0.452 0-0.883-0.046-1.315-0.126 0.89 2.769 3.466 4.788 6.514 4.848-2.391 1.873-5.392 2.988-8.666 2.988-0.564 0-1.116-0.033-1.667-0.1 3.095 1.986 6.76 3.134 10.698 3.134 12.83 0 19.849-10.632 19.849-19.849 0-0.305-0.007-0.604-0.020-0.903 1.361-0.976 2.543-2.205 3.48-3.606z"/>
</svg>