<?xml version="1.0" encoding="iso-8859-1"?>
<!-- Generator: Adobe Illustrator 19.0.0, SVG Export Plug-In . SVG Version: 6.00 Build 0)  -->
<svg version="1.1" id="Layer_1" xmlns="http://www.w3.org/2000/svg" xmlns:xlink="http://www.w3.org/1999/xlink" x="0px" y="0px"
	 viewBox="0 0 512 512" style="enable-background:new 0 0 512 512;" xml:space="preserve">
<polyline style="fill:#00BC69;" points="109.015,432.982 7.606,432.982 7.606,79.019 504.394,79.019 504.394,432.982 
	129.299,432.982 "/>
<path style="fill:#153651;" d="M0,71.414v87.662v193.848v87.662h109.015v-15.211H15.211v-72.451h92.285V159.077H15.211V86.625
	h233.242v86.454c-42.398,3.828-75.737,39.548-75.737,82.926s33.339,79.097,75.737,82.926v86.445H129.299v15.211H512v-87.662V159.077
	V71.414H0z M92.285,174.288v163.425H15.211V174.288H92.285z M263.664,188.376c33.938,3.822,60.407,32.686,60.407,67.628
	s-26.47,63.807-60.407,67.628V188.376z M187.928,256.005c0-34.984,26.53-63.876,60.525-67.644v135.289
	C214.458,319.881,187.928,290.989,187.928,256.005z M496.789,337.714h-77.073V174.288h77.073V337.714z M404.504,159.077v193.848
	h92.284v72.451H263.664v-86.455c42.341-3.884,75.618-39.58,75.618-82.917s-33.277-79.034-75.618-82.917V86.625h233.124v72.451
	h-92.285V159.077z"/>
<g>
</g>
<g>
</g>
<g>
</g>
<g>
</g>
<g>
</g>
<g>
</g>
<g>
</g>
<g>
</g>
<g>
</g>
<g>
</g>
<g>
</g>
<g>
</g>
<g>
</g>
<g>
</g>
<g>
</g>
</svg>
