<?xml version="1.0" encoding="iso-8859-1"?>
<!-- Generator: Adobe Illustrator 18.1.1, SVG Export Plug-In . SVG Version: 6.00 Build 0)  -->
<svg xmlns="http://www.w3.org/2000/svg" xmlns:xlink="http://www.w3.org/1999/xlink" version="1.1" id="Capa_1" x="0px" y="0px" viewBox="0 0 24.716 24.716" style="enable-background:new 0 0 24.716 24.716;" xml:space="preserve" width="512px" height="512px">
<g>
	<g>
		<path d="M0,0.819v23.077h24.716V0.819H0z M24.008,22.692H0.709V2.023h23.299V22.692z" fill="#91DC5A"/>
		<path d="M5.915,20.449h2.743c1.21,0,3.083-0.513,3.083-3.296v-2.098c0.019-0.921-0.397-2.59-1.419-2.805    c1.362-0.321,1.438-2.012,1.419-2.483v-1.39c0-2.633-1.041-3.703-3.064-3.703H5.915c-1.948,0-3.329,0.835-3.329,3.703v1.391    c0,1.135,0.397,2.526,1.607,2.998c-0.756,0.277-1.607,0.706-1.607,2.29v2.098C2.587,18.031,2.662,20.449,5.915,20.449z     M3.986,9.875V8.42c0-1.927,0.719-2.162,1.929-2.162h2.762c1.116,0,1.665,0.578,1.665,2.162v1.455    c0,0.771-0.246,1.798-1.627,1.798H5.708C5.064,11.674,3.986,11.309,3.986,9.875z M3.986,14.969c0-1.326,0.852-1.733,1.722-1.733    h3.007c0.833,0,1.627,0.514,1.627,1.733v2.247c0,1.135-0.87,1.648-1.683,1.648H5.915c-1.38,0-1.929-0.6-1.929-1.648V14.969z" fill="#91DC5A"/>
		<path d="M16.424,20.257h2.742c1.21,0,3.082-0.514,3.082-3.297v-2.098c0.021-0.92-0.396-2.59-1.418-2.804    c1.362-0.321,1.438-2.012,1.418-2.483v-1.39c0-2.633-1.04-3.704-3.063-3.704h-2.761c-1.949,0-3.329,0.835-3.329,3.704v1.391    c0,1.134,0.396,2.526,1.607,2.997c-0.757,0.278-1.607,0.706-1.607,2.29v2.098C13.095,17.839,13.17,20.257,16.424,20.257z     M14.494,9.684V8.229c0-1.927,0.718-2.163,1.93-2.163h2.761c1.116,0,1.664,0.579,1.664,2.163v1.455    c0,0.771-0.246,1.798-1.626,1.798h-3.008C15.573,11.481,14.494,11.118,14.494,9.684z M14.494,14.778    c0-1.326,0.852-1.732,1.721-1.732h3.008c0.832,0,1.626,0.513,1.626,1.732v2.248c0,1.135-0.87,1.648-1.683,1.648h-2.742    c-1.381,0-1.93-0.6-1.93-1.648C14.494,17.025,14.494,14.778,14.494,14.778z" fill="#91DC5A"/>
	</g>
</g>
<g>
</g>
<g>
</g>
<g>
</g>
<g>
</g>
<g>
</g>
<g>
</g>
<g>
</g>
<g>
</g>
<g>
</g>
<g>
</g>
<g>
</g>
<g>
</g>
<g>
</g>
<g>
</g>
<g>
</g>
</svg>
